# xmcd
#
# Track frame offsets: 
#        183
#        55683
#        93258
#        126558
#        187458
#        229158
#        262008
#        287995
#        298345
#        307308
#
# Disc length: 4765 seconds
#
# Revision: 10
# Processed by: cddbd v1.5.2PL0 Copyright (c) Steve Scherf et al.
# Submitted via: ExactAudioCopy v0.99pb4
#
DISCID=ac129b0a
DTITLE=Alfred Brendel, Academy of St Martin in the Fields, Sir Neville
DTITLE=Marriner - Wolfgang Amadeus Mozart - Konzerten für Klavier und
DTITLE=Orchester
DYEAR=1994
DGENRE=Classical
TTITLE0=Konzert für Klavier und Orchester F-dur KV 459:  1. Allegro vi
TTITLE0=vace
TTITLE1=Konzert für Klavier und Orchester F-dur KV 459:  2. Allegretto
TTITLE2=Konzert für Klavier und Orchester F-dur KV 459:  3. Allegro as
TTITLE2=sai
TTITLE3=Konzert für Klavier und Orchester d-moll KV 466:  1. Allegro
TTITLE4=Konzert für Klavier und Orchester d-moll KV 466:  2. Romance
TTITLE5=Konzert für Klavier und Orchester d-moll KV 466:  3. Allegro a
TTITLE5=ssai
TTITLE6=Rondo D-dur KV 382:  Allegretto grazioso
TTITLE7=Rondo D-dur KV 382:  Adagio
TTITLE8=Rondo D-dur KV 382:  Allegro
TTITLE9=Konzert für Klavier und Orchester A-dur KV 488:  1. Allegro
EXTD=
EXTT0=
EXTT1=
EXTT2=
EXTT3=
EXTT4=
EXTT5=
EXTT6=
EXTT7=
EXTT8=
EXTT9=
PLAYORDER=
